# WaveFront *.obj file (generated by CINEMA 4D)

g Cubo_4
v -210.063623 91.68643 51.382592
v -224.238057 113.222365 63.964037
v -229.385688 115.412906 79.922967
v -263.253767 141.904959 93.668502
v -263.524638 146.131095 95.591127
v -203.238882 95.599431 51.012415
v -217.413315 117.135367 63.593859
v -227.885817 121.481186 79.150954
v -255.184671 139.186374 91.965365
v -258.152085 143.150931 93.506364
v -204.879554 97.175421 44.013059
v -219.053988 118.711357 56.594504
v -229.672425 120.778227 71.363232
v -257.302949 139.82345 86.101457
v -259.811641 143.78345 88.409434
v -211.704296 93.26242 44.383236
v -225.87873 114.798355 56.964681
v -235.973996 116.01309 72.990623
v -264.757377 143.142105 88.212449
v -264.030854 148.014666 90.036726
v -252.879062 156.5315 84.706039
v -278.194517 169.335996 102.764621
v -277.155043 171.725828 103.70904
v -277.960923 169.989714 100.235598
v -248.958035 164.899087 84.945393
v -250.35355 173.94573 90.043378
v -250.073156 164.737574 83.140106
v -251.468671 166.39546 83.925411
v -276.92145 172.379547 101.180017
v -274.905764 159.391478 99.817279
v -273.418183 160.793668 100.551834
v -274.716859 159.924483 97.747544
v -284.995394 166.750714 100.700268
v -284.135625 168.935347 101.589448
v -284.838987 167.316454 98.346735
v -283.91506 169.552602 99.201489
v -273.222029 161.34469 98.423552
v -270.243528 151.081663 97.8701
v -269.277623 153.567696 99.087859
v -270.075486 151.811027 95.158733
v -269.065223 154.266318 96.192526
v -250.092748 125.799243 87.736826
v -258.779112 135.251677 86.675765
v -247.88859 129.291649 81.119474
v -255.590456 127.73106 83.199577
v -257.229715 134.028734 90.633516
v -250.851038 132.817818 88.492783
v -255.024485 135.739951 85.27306
v -252.213802 144.064635 88.978026
v -254.45063 146.723243 90.223345
v -254.006507 143.725075 85.761722
v -256.354608 146.52346 87.084926
v -250.725034 149.234146 87.527839
v -252.740406 151.641287 88.682509
v -252.376414 148.95006 84.778268
v -254.457554 151.421161 85.947224
v -249.099697 154.292843 86.264205
v -251.189999 156.776143 87.440491
v -250.78876 154.048201 83.529753

f 6 7 2 1 
f 7 8 3 2 
f 8 42 3 
f 24 32 30 22 
f 11 12 7 6 
f 12 13 8 7 
f 13 44 8 
f 27 28 26 25 
f 16 17 12 11 
f 17 18 13 12 
f 18 45 44 13 
f 23 34 33 22 
f 1 2 17 16 
f 2 3 18 17 
f 46 4 19 43 
f 33 34 36 35 
f 10 15 20 5 
f 11 6 1 16 
f 29 36 34 23 
f 29 37 32 24 
f 31 23 22 30 
f 37 29 23 31 
f 14 51 49 9 
f 15 52 51 14 
f 58 26 28 21 
f 57 25 26 58 
f 32 40 38 30 
f 37 41 40 32 
f 39 31 30 38 
f 41 37 31 39 
f 22 33 35 24 
f 5 39 38 4 
f 20 41 39 5 
f 24 35 36 29 
f 40 19 4 38 
f 41 20 19 40 
f 47 46 42 
f 43 19 14 48 
f 45 43 48 44 
f 45 18 3 42 
f 43 45 42 46 
f 47 9 4 46 
f 48 14 9 47 
f 48 47 44 
f 44 47 8 
f 8 47 42 
f 51 55 53 49 
f 52 56 55 51 
f 52 15 10 50 
f 50 10 9 49 
f 56 52 50 54 
f 54 50 49 53 
f 55 59 57 53 
f 56 21 59 55 
f 21 56 54 58 
f 58 54 53 57 
f 59 27 25 57 
f 21 28 27 59 
f 14 19 20 15 
f 4 9 10 5 

g Cubo_3
v -208.979672 104.664254 45.309082
v -204.19422 121.857805 32.434619
v -203.827224 148.344124 30.018249
v -190.77913 179.083927 9.727202
v -187.313852 184.201765 7.990894
v -208.989823 106.819007 49.994506
v -204.209909 125.187921 39.675824
v -203.741848 147.065225 37.934427
v -190.726522 180.98 17.688817
v -187.261245 186.097837 15.952509
v -204.470071 105.73535 50.778103
v -197.224747 123.513157 40.886853
v -196.771906 145.154036 38.552933
v -181.966431 178.453107 18.508225
v -180.291302 184.186647 16.571014
v -204.459919 103.580597 46.092679
v -197.209058 120.18304 33.645649
v -196.89856 147.463288 30.32845
v -182.019039 176.557035 10.54661
v -180.34391 182.290575 8.609399
v -135.055001 193.387071 9.612706
v -135.053116 195.412529 8.992457
v -135.236056 192.825944 7.052859
v -135.234171 194.851403 6.43261
v -174.403891 197.961589 37.115742
v -173.500345 199.871573 36.469159
v -172.479977 197.30274 36.739612
v -171.576431 199.212724 36.093029
v -195.043346 209.528566 -0.735207
v -194.526129 206.587601 0.750978
v -195.859797 210.552485 2.524413
v -195.342579 207.611521 4.010598
v -200.748843 197.671681 6.644069
v -203.143185 198.862019 2.681462
v -203.714839 199.578936 4.963749
v -203.780305 197.597281 3.059328
v -173.696048 177.800133 18.219496
v -173.690637 183.614226 16.439068
v -174.197371 176.246435 11.131559
v -174.19196 182.060528 9.35113
v -162.727317 178.210826 16.592856
v -162.723043 182.803725 15.18639
v -163.129606 176.964054 10.905106
v -163.125332 181.556952 9.49864
v -138.824861 185.788397 11.522666
v -141.235302 187.973347 11.018628
v -139.080022 184.997601 7.915076
v -141.490463 187.182551 7.411038
v -185.666165 183.488706 23.589703
v -184.034762 186.937289 22.422261
v -182.024504 182.241611 22.877748
v -180.393101 185.690195 21.710307
v -182.734386 186.887578 27.529165
v -181.370208 189.77128 26.552951
v -179.737993 185.861457 26.943362
v -178.373815 188.745159 25.967148
v -180.212333 190.111808 31.615418
v -178.858937 192.972719 30.64692
v -177.298197 189.113855 31.045696
v -175.944801 191.974766 30.077198
v -197.706804 188.715736 7.88985
v -193.690966 188.783216 8.891093
v -198.633865 189.878372 11.59107
v -194.618027 189.945852 12.592313
v -198.274515 195.295707 5.501866
v -195.726332 195.338526 6.137188
v -198.876041 196.050086 7.903413
v -196.327858 196.092905 8.538735
v -197.749944 201.825231 2.754382
v -195.470202 201.863539 3.322776
v -198.300869 202.516152 4.953908
v -196.021126 202.554459 5.522302
v -204.368661 198.335144 5.408295
v -206.230156 200.841564 0.977088
v -206.80181 201.558482 3.259375
v -206.017219 199.56214 1.580223
v -206.605575 200.300003 3.92919
v -193.379578 173.273167 11.693769
v -182.723329 175.145132 11.02471
v -184.821321 172.729859 20.446237
v -184.873928 170.833787 12.484622
v -191.420651 177.650435 10.212346
v -191.368043 179.546507 18.173961
v -182.670721 177.041204 18.986325
v -150.21258 182.440858 13.758593
v -152.007448 185.481715 12.966993
v -150.524741 181.47341 9.345116
v -152.3218 184.507479 8.522545
v -154.160046 180.926827 14.775567
v -156.188088 184.375935 13.91887
v -154.509601 179.843489 9.8334
v -156.545632 183.267836 8.863748
v -138.779589 184.846671 25.557112
v -139.572921 186.19073 25.207224
v -141.464739 183.995423 26.126686
v -142.361134 185.519929 25.748026
v -149.559954 184.053234 17.585929
v -150.533429 185.623451 16.980283
v -152.774255 183.047075 18.336105
v -153.876602 184.823522 17.65101
v -144.760303 183.437533 20.84257
v -145.833803 184.963944 19.992461
v -147.852807 182.757834 22.526662
v -149.068302 184.484803 21.565204
v -198.172188 198.712015 4.028306
v -195.569998 199.32119 4.419359
v -198.743842 199.428933 6.310593
v -196.140639 200.036836 6.697599
v -198.137985 196.995155 4.786774
v -195.656515 197.117146 5.370022
v -198.72634 197.733018 7.135741
v -196.244248 197.854228 7.716501
v -208.977849 203.95199 -1.160427
v -209.549503 204.668908 1.12186
v -208.14678 201.585409 0.101838
v -208.735136 202.323271 2.450804
v -200.38899 198.284773 3.655052
v -200.960644 199.001691 5.937339
v -200.160487 196.933819 4.295102
v -196.488265 164.884536 17.149792
v -196.633145 165.044345 19.932863
v -190.102596 165.566106 25.327705
v -196.740529 165.443713 26.753604
v -187.901689 165.621948 25.113397
v -187.352237 165.115121 16.239583
v -198.793966 154.951633 24.486827
v -199.309191 158.27617 26.709487
v -195.237043 158.601516 30.07346
v -199.37615 158.525197 30.962584
v -190.896419 158.711648 29.650803
v -190.08951 155.18217 23.803295
v -199.298484 152.114599 18.801365
v -203.446585 146.382849 21.598379
v -197.907005 145.666532 21.805418
v -192.315614 152.369129 18.508981
v -199.333703 150.012366 12.246237
v -202.640868 145.20892 13.113541
v -198.209132 144.630047 13.244472
v -193.748933 150.250418 12.226582
v -198.843798 148.727413 5.126537
v -201.393946 144.826357 4.703197
v -197.8463 144.361546 4.779583
v -194.390745 148.927236 5.285565
v -197.806684 148.304768 -2.25345
v -199.703431 145.231612 -3.475463
v -196.861803 144.860787 -3.43683
v -194.266523 148.457376 -1.987993
v -196.229671 148.754698 -9.598659
v -197.582335 146.408627 -11.253144
v -195.304944 146.114678 -11.239505
v -193.423205 148.859357 -9.280319
v -194.145424 150.055566 -16.630577
v -195.059743 148.325381 -18.455376
v -193.233635 148.093838 -18.457286
v -191.926427 150.116471 -16.297394
v -191.608095 152.156875 -23.093677
v -192.180558 150.931867 -24.910069
v -190.71568 150.750595 -24.920749
v -189.857718 152.180794 -22.771243
v -188.689579 154.982543 -28.76101
v -189.004429 154.159421 -30.455166
v -187.828919 154.018333 -30.469926
v -187.311636 154.977198 -28.465249

f 65 66 61 60 
f 66 67 62 61 
f 180 137 179 
f 90 91 89 88 
f 70 71 66 65 
f 71 72 67 66 
f 183 139 181 
f 86 87 85 84 
f 75 76 71 70 
f 76 77 72 71 
f 77 190 189 72 
f 82 83 81 80 
f 60 61 76 75 
f 61 62 77 76 
f 141 63 78 138 
f 94 177 176 93 
f 69 74 79 64 
f 70 65 60 75 
f 78 98 96 73 
f 79 99 98 78 
f 105 81 83 107 
f 104 80 81 105 
f 73 110 108 68 
f 74 111 110 73 
f 117 85 87 119 
f 116 84 85 117 
f 68 122 120 63 
f 69 123 122 68 
f 129 89 91 131 
f 128 88 89 129 
f 132 136 135 95 
f 95 135 133 93 
f 136 132 94 134 
f 134 94 93 133 
f 98 102 100 96 
f 99 103 102 98 
f 99 79 74 97 
f 97 74 73 96 
f 103 99 97 101 
f 101 97 96 100 
f 102 150 148 100 
f 103 151 150 102 
f 107 147 145 105 
f 105 145 144 104 
f 106 82 80 104 
f 107 83 82 106 
f 110 114 112 108 
f 111 115 114 110 
f 111 74 69 109 
f 109 69 68 108 
f 115 111 109 113 
f 113 109 108 112 
f 114 118 116 112 
f 115 119 118 114 
f 119 115 113 117 
f 117 113 112 116 
f 118 86 84 116 
f 119 87 86 118 
f 122 126 124 120 
f 123 127 126 122 
f 123 69 64 121 
f 121 64 63 120 
f 127 123 121 125 
f 125 121 120 124 
f 126 170 168 124 
f 127 171 170 126 
f 131 167 165 129 
f 129 165 164 128 
f 130 90 88 128 
f 131 91 90 130 
f 136 175 174 135 
f 135 174 172 133 
f 142 141 137 
f 138 78 73 143 
f 140 138 143 139 
f 184 190 185 179 
f 138 140 137 141 
f 142 68 63 141 
f 143 73 68 142 
f 143 142 139 
f 187 188 67 
f 186 67 188 
f 146 106 104 144 
f 147 107 106 146 
f 147 151 149 145 
f 153 155 154 152 
f 150 146 144 148 
f 151 147 146 150 
f 151 103 101 149 
f 149 101 100 148 
f 145 157 156 144 
f 149 159 157 145 
f 162 154 155 163 
f 160 152 154 162 
f 157 161 160 156 
f 159 163 161 157 
f 159 149 148 158 
f 158 148 144 156 
f 163 159 158 162 
f 162 158 156 160 
f 161 153 152 160 
f 163 155 153 161 
f 166 130 128 164 
f 167 131 130 166 
f 167 171 169 165 
f 165 169 168 164 
f 175 173 172 174 
f 171 167 166 170 
f 171 127 125 169 
f 169 125 124 168 
f 170 92 178 168 
f 134 173 175 136 
f 133 172 173 134 
f 168 178 176 164 
f 92 132 95 178 
f 92 170 166 177 
f 177 166 164 176 
f 178 95 93 176 
f 132 92 177 94 
f 79 78 63 64 
f 185 62 67 186 
f 187 67 72 189 
f 184 140 139 183 
f 179 137 140 184 
f 181 139 142 182 
f 182 142 137 180 
f 190 184 183 189 
f 222 221 220 219 
f 187 181 182 188 
f 188 182 180 186 
f 186 180 179 185 
f 189 183 181 187 
f 185 191 192 62 
f 62 192 193 77 
f 77 193 194 190 
f 190 194 191 185 
f 191 195 196 192 
f 192 196 197 193 
f 193 197 198 194 
f 194 198 195 191 
f 195 199 200 196 
f 196 200 201 197 
f 197 201 202 198 
f 198 202 199 195 
f 199 203 204 200 
f 200 204 205 201 
f 201 205 206 202 
f 202 206 203 199 
f 203 207 208 204 
f 204 208 209 205 
f 205 209 210 206 
f 206 210 207 203 
f 207 211 212 208 
f 208 212 213 209 
f 209 213 214 210 
f 210 214 211 207 
f 211 215 216 212 
f 212 216 217 213 
f 213 217 218 214 
f 214 218 215 211 
f 215 219 220 216 
f 216 220 221 217 
f 217 221 222 218 
f 218 222 219 215 

g Cubo
v -222.285566 8.450723 54.795264
v -219.174941 58.450723 58.514046
v -208.954313 120.893225 50.545226
v -209.898415 187.584925 53.506303
v -213.228724 198.604524 56.007179
v -209.220222 8.450723 54.795264
v -206.109596 58.450723 58.514046
v -195.888969 120.893225 50.545226
v -197.375739 191.070297 54.82463
v -200.706048 202.089896 57.325506
v -209.220222 8.450723 50.260787
v -206.109596 58.450723 49.195975
v -195.888969 120.893225 38.786164
v -197.307225 196.114797 40.837256
v -200.706048 206.250058 46.326934
v -222.285566 8.450723 43.036201
v -219.174941 58.450723 46.754984
v -208.954313 120.893225 38.786164
v -209.829902 192.629425 39.518929
v -213.228724 202.764686 45.008607
v -229.0388 294.217634 -1.671144
v -230.052934 297.211963 0.978594
v -233.042213 293.005356 -1.833438
v -234.056346 295.999685 0.816301
v -169.37841 234.328711 54.000835
v -170.56264 238.05101 55.408778
v -170.239056 235.239661 50.868588
v -171.423286 238.961959 52.276531
v -226.318373 228.208845 98.71109
v -223.9971 224.425169 94.154761
v -221.074347 229.167923 100.586279
v -218.753074 225.384246 96.02995
v -260.84604 202.324357 49.987384
v -262.200551 206.581888 51.597777
v -260.127578 203.901328 46.422516
v -261.48209 208.158859 48.032908
v -198.948915 203.397849 29.968949
v -201.859991 211.993089 37.575041
v -210.033927 200.041184 29.519577
v -212.945003 208.636424 37.125668
v -203.110907 214.880315 17.336174
v -205.41054 221.670207 23.344679
v -212.006129 212.186743 16.975572
v -214.305762 218.976635 22.984077
v -214.703587 249.813756 -1.509691
v -215.187845 250.639653 4.266693
v -220.345593 248.105293 -1.738411
v -220.829851 248.931191 4.037973
v -188.840488 200.338258 51.085136
v -190.978681 207.059075 53.627256
v -190.469552 202.062539 45.156294
v -192.607745 208.783356 47.698413
v -183.10756 208.66448 51.32206
v -184.895514 214.284421 53.447778
v -184.447969 210.083234 46.443752
v -186.235923 215.703175 48.56947
v -177.080649 216.329183 51.817491
v -178.854473 221.904707 53.926408
v -178.384261 217.708989 47.073102
v -180.158085 223.284513 49.18202
v -211.961732 194.958309 74.414849
v -210.964397 199.155934 69.478866
v -206.007265 196.047319 76.544081
v -205.009929 200.244944 71.608098
v -215.761816 204.083437 83.770054
v -215.128973 206.74697 80.638008
v -211.898243 204.790044 85.151612
v -211.2654 207.453577 82.019566
v -220.286447 214.200387 91.776708
v -219.720271 216.583327 88.97461
v -216.747882 214.847553 93.042049
v -216.181707 217.230494 90.239951
v -255.963837 213.881796 56.214114
v -257.388009 218.358285 57.907326
v -255.202934 215.551922 52.438658
v -256.627106 220.028412 54.131871
v -241.326288 203.670786 54.320463
v -241.150448 207.542337 56.068538
v -240.671904 205.107113 51.073531
v -240.496064 208.978664 52.821605
v -227.359135 196.996523 55.015878
v -229.058867 202.339158 57.036706
v -226.433183 199.028921 50.42148
v -228.132914 204.371556 52.442308
v -209.468563 233.551242 7.825561
v -210.510554 236.256365 13.97592
v -216.370916 231.461133 7.545748
v -217.461343 234.151589 13.694143
v -207.266029 227.401382 10.581318
v -208.38406 230.480534 17.54259
v -214.995213 225.060899 10.267987
v -216.289899 228.086558 17.222097
v -192.5479 249.483818 -4.568325
v -193.00846 250.679483 -1.849866
v -191.245603 245.559471 -2.451221
v -191.739773 246.920456 0.625661
v -203.551602 236.906472 8.58506
v -204.393582 238.242042 11.843136
v -201.885022 232.233084 11.126873
v -202.837288 233.743055 14.814089
v -199.096955 241.031091 1.536049
v -200.309446 242.182694 4.891849
v -195.97998 237.038436 4.223762
v -197.351099 238.340426 8.021593
v -218.16111 209.201641 88.173574
v -217.931358 212.750775 85.72641
v -214.489401 209.873158 89.486524
v -214.26616 213.421102 87.037032
v -216.939448 206.71659 85.853957
v -216.380492 209.428214 82.910441
v -213.160465 207.407726 87.205267
v -212.605512 210.118618 84.26032
v -224.875168 205.85503 108.661299
v -221.20346 206.526547 109.97425
v -222.962636 203.230768 104.480842
v -219.183654 203.921905 105.832153
v -218.421728 206.312748 90.379943
v -214.750019 206.984265 91.692893
v -217.421404 204.562435 88.303519
v -213.642421 205.253571 89.654829
v -219.569273 204.347989 94.593978
v -215.897564 205.019506 95.906928
v -218.858835 201.840592 93.715447
v -215.079853 202.531728 95.066757
v -221.846112 204.099413 101.088368
v -218.174404 204.77093 102.401319
v -220.903025 202.43808 99.1265
v -217.124043 203.129217 100.477811
v -201.973585 148.711665 56.133032
v -186.359199 148.711665 56.133032
v -186.359199 148.505587 41.707403
v -201.973585 148.505587 41.707403
v -201.973585 158.168455 56.299998
v -186.359199 158.168455 56.299998
v -186.359199 157.936657 41.541556
v -201.973585 157.936657 41.541556
v -149.468391 175.736047 72.855006
v -146.286585 176.488676 67.355058
v -150.584091 179.779189 72.918664
v -147.326485 180.540197 67.291826
v -176.944816 150.128643 57.741777
v -172.092132 151.276504 49.353615
v -178.64641 156.294982 57.838865
v -173.678121 157.455621 49.257178
v -169.44045 152.607358 61.587789
v -165.572279 153.963934 54.444678
v -170.889477 157.85843 61.670466
v -166.534312 159.310589 54.362556
v -162.135719 155.989476 65.321523
v -158.760553 156.686996 59.406478
v -163.335625 160.337767 65.389986
v -159.55719 161.114437 59.338475
v -155.962392 161.79849 68.84236
v -152.798522 162.546876 63.373415
v -157.071803 165.818841 68.905659
v -153.83256 166.575559 63.31054
v -216.219169 77.705548 56.20949
v -203.153825 77.705548 56.20949
v -203.153825 76.508887 44.450428
v -216.219169 76.508887 44.450428
v -218.29079 65.049067 57.824692
v -205.225445 65.049067 57.824692
v -205.225445 63.852406 47.438376
v -218.29079 63.852406 46.065629
v -209.279984 66.788395 71.684387
v -207.626625 76.987075 71.249643
v -198.615516 76.998981 65.953434
v -200.268875 66.800301 66.388178
v -206.559425 67.734313 73.902378
v -204.529609 75.704148 74.797035
v -197.206174 75.683039 70.761332
v -199.23599 67.713204 69.866675
v -204.003775 67.848856 76.512775
v -201.863561 73.879709 78.200716
v -195.921167 73.806932 75.129643
v -198.061381 67.776079 73.441702
v -201.687933 67.140406 79.306159
v -199.614695 71.542481 81.393254
v -194.802291 71.415801 79.055741
v -196.875529 67.013726 76.968646
v -199.675704 65.654831 82.096202
v -197.778656 68.731401 84.304539
v -193.890105 68.557958 82.521786
v -195.787153 65.481387 80.313449
v -198.018559 63.467827 84.720883
v -196.356267 65.498228 86.864802
v -193.221994 65.289678 85.49971
v -194.884286 63.259278 83.355791
v -196.754938 60.678251 87.043144
v -195.349789 61.908532 89.007966
v -192.830169 61.677862 87.95634
v -194.235319 60.447581 85.991518
v -195.909956 57.402235 88.951145
v -194.759739 58.041324 90.674992
v -192.739816 57.80088 89.858311
v -193.890034 57.161791 88.134465
v -195.021941 78.177359 78.258724
v -193.989179 76.851722 81.650127
v -197.839342 76.950469 83.519783
v -199.771322 78.256447 80.723756
v -194.375945 83.132804 80.536578
v -193.47637 82.574629 83.373397
v -196.556532 82.651523 84.869166
v -198.173126 83.213812 82.512425
v -194.049582 88.482352 81.89838
v -193.302426 88.451483 84.202407
v -195.766452 88.511344 85.39932
v -197.086568 88.56175 83.47985
v -192.842151 93.681283 85.940254
v -193.638945 92.083601 86.693834
v -195.646067 92.317429 85.844333
v -195.373425 93.91129 84.916849
v -194.715288 96.431279 90.432467
v -195.420664 95.311525 91.239946
v -197.026194 95.49773 90.559714
v -196.742592 96.621066 89.620748
v -196.240737 100.023382 94.467406
v -196.847123 99.282067 95.255403
v -198.13147 99.430265 94.710828
v -197.863969 100.180781 93.822847
v -197.501194 102.5939 91.920043
v -197.980591 102.998304 92.688859
v -198.515423 102.076238 93.040021
v -198.187892 101.462883 92.386219
v -201.968747 103.786531 88.676154
v -202.45247 104.133913 89.200921
v -202.880026 103.396254 89.482308
v -202.521537 102.882469 89.045832
v -192.24961 82.530438 90.610946
v -190.824567 87.032802 91.114301
v -189.599403 86.984832 89.297287
v -190.718158 82.468793 88.339721
v -187.730428 81.339786 93.358848
v -186.088916 84.683685 94.106662
v -185.108445 84.645171 92.653283
v -186.505036 81.290314 91.542028
v -183.483149 79.131445 96.018198
v -181.805683 81.518765 96.869957
v -181.021055 81.487788 95.707428
v -182.502673 79.091706 94.564856
v -179.659571 75.992259 98.471061
v -178.064585 77.613746 99.331037
v -177.436705 77.588792 98.401138
v -178.875079 75.960314 97.308465
v -177.82369 73.073379 100.685397
v -176.777984 74.704371 100.860125
v -176.2418 74.497803 100.170227
v -177.153651 72.814508 99.823074
v -174.163916 70.612372 104.120971
v -173.170734 71.770906 104.426349
v -172.741677 71.605567 103.874541
v -173.627817 70.405194 103.43119
v -171.049238 67.301542 107.418437
v -170.152239 68.082696 107.786116
v -169.808919 67.950337 107.344754
v -170.620316 67.135722 106.866669
v -168.579784 63.250652 110.461192
v -167.800985 63.739645 110.843757
v -167.526283 63.633674 110.490728
v -168.236624 63.117926 110.019817
v -197.061672 101.106547 94.358504
v -197.614547 100.848016 95.138418
v -198.583064 100.545226 94.971289
v -197.917584 100.721033 93.948711
v -162.748816 155.791287 51.265345
v -156.410563 157.063653 54.164567
v -156.446082 160.660975 54.052497
v -162.791709 160.135477 51.130008
v -160.439875 156.708423 47.357862
v -154.970205 156.187336 48.74991
v -154.199496 158.958153 48.610288
v -159.509154 160.05451 47.189251
v -158.660426 156.417019 42.917337
v -154.165918 155.920425 43.254731
v -153.542951 158.132783 43.101207
v -157.90812 159.0887 42.731939
v -157.964156 156.968272 38.012176
v -154.524908 155.923458 37.5233
v -153.710004 157.575761 37.565507
v -156.980064 158.963623 38.063146
v -158.074012 157.440761 33.126671
v -155.421834 156.661214 32.243459
v -154.775257 157.986091 32.250709
v -157.293194 159.040705 33.135426
v -159.082624 160.631511 26.942107
v -157.103449 160.723875 25.732029
v -156.593869 161.636789 26.277832
v -158.467247 161.733962 27.601228
v -160.945082 163.869169 23.629575
v -159.522882 164.145221 22.467374
v -159.123901 164.886446 22.893556
v -160.463266 164.764285 24.14424
v -163.588995 167.082032 20.815168
v -162.6139 167.459735 19.759586
v -162.30348 168.061167 20.093752
v -163.214127 167.808331 21.218712
v -223.540321 23.995352 57.48415
v -204.903183 17.422948 67.530344
v -206.476981 23.995352 49.351401
v -223.540321 25.45707 42.126815
v -222.087329 15.021308 55.032259
v -209.021984 11.637182 55.032259
v -209.021984 11.637182 50.497782
v -222.087329 11.637182 43.273196
v -240.336291 17.752161 57.48415
v -240.336291 17.752161 42.126815
v -237.134177 9.45253 55.032259
v -237.134177 9.45253 43.273196
v -191.409161 4.954287 28.744736
v -198.378514 4.954287 22.034142
v -195.228494 1.933858 30.63089
v -200.564905 1.933858 25.49261
v -220.608174 36.983872 57.621145
v -206.428112 36.983872 57.621145
v -206.428112 36.983872 49.967032
v -220.608174 35.104498 42.742446
v -221.433012 18.839807 67.915374
v -197.029136 10.531202 75.271842
v -220.986119 15.249504 65.116136
v -205.945973 16.079129 64.413155
v -198.949339 7.875935 79.064092
v -221.445439 25.189883 68.087309
v -206.572369 25.088862 68.084574
v -198.990856 8.635738 73.29278
v -246.012727 10.128172 54.865724
v -246.012727 10.128172 44.74524
v -241.744495 6.109458 53.249928
v -241.744495 6.109458 45.500706
v -244.700007 -0.123478 52.383676
v -244.700007 -0.123478 47.227289
v -241.817973 0.661024 51.560427
v -241.817973 0.661024 47.612199
v -209.20579 11.225023 77.105785
v -219.406009 11.205988 78.203387
v -218.977782 13.859904 69.922178
v -208.392069 13.90266 67.968056
v -218.993279 12.53681 81.557459
v -208.861442 12.487467 81.500128
v -196.303678 19.460076 39.360527
v -208.595306 20.495761 27.525264
v -198.932118 10.683618 38.421093
v -208.343778 10.683618 29.35887
v -210.652826 4.296845 79.437757
v -219.346729 4.280161 80.161079
v -219.114934 5.446627 83.105155
v -210.440678 5.403377 83.292435
v -214.95038 0.005169 81.906793
v -219.980382 -0.105414 82.303189
v -219.842915 -0.080025 84.13472
v -214.825502 -0.18864 84.218559
v -203.486481 16.686494 71.311599
v -220.395959 16.013342 71.032671
v -220.112934 20.842569 72.168804
v -202.716684 22.412138 72.91153
v -210.498905 12.577932 70.736814
v -218.495967 12.542364 72.431408
v -201.48936 13.989997 72.594276
v -210.619513 12.756703 73.904483
v -219.728094 14.474012 74.599096
v -218.723083 12.729358 75.302157
v -220.075442 17.563274 76.838342
v -200.533018 17.495826 75.514128
v -200.22393 7.360169 75.993226
v -193.875593 2.847938 75.517905
v -195.180103 1.68918 77.764057
v -195.367874 2.208444 74.506964
v -196.115418 1.691127 76.099388
v -193.319918 -1.561749 75.329875
v -193.909557 -2.085507 76.345136
v -193.99443 -1.8508 74.87293
v -194.332319 -2.084627 75.592705
v -194.484318 4.331031 75.470408
v -195.907675 2.883404 78.015001
v -196.067215 3.449099 74.272591
v -196.90848 2.785417 76.078895
v -198.79065 -1.897325 78.963295
v -199.152588 -1.898195 78.319051
v -199.249675 -1.666648 79.159237
v -199.62272 -1.68443 78.402019

f 228 524 523 223 
f 229 384 383 224 
f 230 352 351 225 
f 253 254 252 251 
f 233 525 524 228 
f 234 385 384 229 
f 235 353 352 230 
f 249 250 248 247 
f 238 526 525 233 
f 239 386 385 234 
f 240 354 353 235 
f 245 246 244 243 
f 535 224 239 538 
f 379 225 240 382 
f 355 226 241 358 
f 255 256 258 257 
f 232 237 242 227 
f 233 228 223 238 
f 241 261 259 236 
f 242 262 261 241 
f 268 244 246 270 
f 267 243 244 268 
f 236 273 271 231 
f 237 274 273 236 
f 280 248 250 282 
f 279 247 248 280 
f 231 285 283 226 
f 232 286 285 231 
f 292 252 254 294 
f 291 251 252 292 
f 295 255 257 297 
f 227 304 303 226 
f 242 306 304 227 
f 297 257 258 298 
f 261 265 263 259 
f 262 266 265 261 
f 262 242 237 260 
f 260 237 236 259 
f 266 262 260 264 
f 264 260 259 263 
f 265 313 311 263 
f 266 314 313 265 
f 270 310 308 268 
f 268 308 307 267 
f 269 245 243 267 
f 270 246 245 269 
f 273 277 275 271 
f 274 278 277 273 
f 274 237 232 272 
f 272 232 231 271 
f 278 274 272 276 
f 276 272 271 275 
f 277 281 279 275 
f 278 282 281 277 
f 282 278 276 280 
f 280 276 275 279 
f 281 249 247 279 
f 282 250 249 281 
f 285 289 287 283 
f 286 290 289 285 
f 286 232 227 284 
f 284 227 226 283 
f 290 286 284 288 
f 288 284 283 287 
f 289 333 331 287 
f 290 334 333 289 
f 294 330 328 292 
f 292 328 327 291 
f 293 253 251 291 
f 294 254 253 293 
f 297 301 299 295 
f 296 256 255 295 
f 298 258 256 296 
f 298 302 301 297 
f 300 296 295 299 
f 302 298 296 300 
f 301 305 303 299 
f 302 306 305 301 
f 304 300 299 303 
f 306 302 300 304 
f 305 241 226 303 
f 306 242 241 305 
f 309 269 267 307 
f 310 270 269 309 
f 310 314 312 308 
f 316 318 317 315 
f 313 309 307 311 
f 314 310 309 313 
f 314 266 264 312 
f 312 264 263 311 
f 308 320 319 307 
f 312 322 320 308 
f 325 317 318 326 
f 323 315 317 325 
f 320 324 323 319 
f 322 326 324 320 
f 322 312 311 321 
f 321 311 307 319 
f 326 322 321 325 
f 325 321 319 323 
f 324 316 315 323 
f 326 318 316 324 
f 329 293 291 327 
f 330 294 293 329 
f 330 334 332 328 
f 328 332 331 327 
f 338 336 335 337 
f 334 330 329 333 
f 334 290 288 332 
f 332 288 287 331 
f 333 342 341 331 
f 348 336 338 350 
f 347 335 336 348 
f 331 341 339 327 
f 342 346 345 341 
f 342 333 329 340 
f 340 329 327 339 
f 341 345 343 339 
f 346 342 340 344 
f 344 340 339 343 
f 346 350 349 345 
f 345 349 347 343 
f 350 346 344 348 
f 348 344 343 347 
f 350 338 337 349 
f 349 337 335 347 
f 352 356 355 351 
f 360 362 361 359 
f 354 358 357 353 
f 354 240 225 351 
f 358 354 351 355 
f 356 231 226 355 
f 357 236 231 356 
f 358 241 236 357 
f 353 364 363 352 
f 357 366 364 353 
f 377 361 362 378 
f 375 359 361 377 
f 364 368 367 363 
f 366 370 368 364 
f 366 357 356 365 
f 365 356 352 363 
f 370 366 365 369 
f 369 365 363 367 
f 368 372 371 367 
f 518 517 516 515 
f 374 370 369 373 
f 373 369 367 371 
f 372 376 375 371 
f 374 378 376 372 
f 378 374 373 377 
f 377 373 371 375 
f 376 360 359 375 
f 378 362 360 376 
f 380 230 225 379 
f 381 235 230 380 
f 382 240 235 381 
f 382 386 383 379 
f 418 417 416 415 
f 385 381 380 384 
f 386 382 381 385 
f 386 239 224 383 
f 383 387 388 379 
f 379 388 389 380 
f 380 389 390 384 
f 384 390 387 383 
f 387 391 392 388 
f 388 392 393 389 
f 389 393 394 390 
f 390 394 391 387 
f 391 395 396 392 
f 392 396 397 393 
f 393 397 398 394 
f 394 398 395 391 
f 395 399 400 396 
f 450 449 448 447 
f 397 401 402 398 
f 398 402 399 395 
f 399 403 404 400 
f 400 404 405 401 
f 401 405 406 402 
f 402 406 403 399 
f 403 407 408 404 
f 404 408 409 405 
f 405 409 410 406 
f 406 410 407 403 
f 407 411 412 408 
f 408 412 413 409 
f 409 413 414 410 
f 410 414 411 407 
f 411 415 416 412 
f 412 416 417 413 
f 413 417 418 414 
f 414 418 415 411 
f 397 419 420 401 
f 401 420 421 400 
f 400 421 422 396 
f 396 422 419 397 
f 419 423 424 420 
f 420 424 425 421 
f 421 425 426 422 
f 422 426 423 419 
f 423 427 428 424 
f 482 481 480 479 
f 425 429 430 426 
f 426 430 427 423 
f 427 431 432 428 
f 428 432 433 429 
f 429 433 434 430 
f 430 434 431 427 
f 431 435 436 432 
f 432 436 437 433 
f 433 437 438 434 
f 434 438 435 431 
f 435 439 440 436 
f 436 440 441 437 
f 437 441 442 438 
f 438 442 439 435 
f 483 443 444 484 
f 484 444 445 485 
f 485 445 446 486 
f 442 486 483 439 
f 443 447 448 444 
f 444 448 449 445 
f 445 449 450 446 
f 446 450 447 443 
f 425 451 452 429 
f 429 452 453 428 
f 428 453 454 424 
f 424 454 451 425 
f 451 455 456 452 
f 452 456 457 453 
f 453 457 458 454 
f 454 458 455 451 
f 455 459 460 456 
f 456 460 461 457 
f 457 461 462 458 
f 458 462 459 455 
f 459 463 464 460 
f 460 464 465 461 
f 461 465 466 462 
f 462 466 463 459 
f 463 467 468 464 
f 464 468 469 465 
f 465 469 470 466 
f 466 470 467 463 
f 467 471 472 468 
f 468 472 473 469 
f 469 473 474 470 
f 470 474 471 467 
f 471 475 476 472 
f 472 476 477 473 
f 473 477 478 474 
f 474 478 475 471 
f 475 479 480 476 
f 476 480 481 477 
f 477 481 482 478 
f 478 482 479 475 
f 484 440 439 483 
f 485 441 440 484 
f 486 442 441 485 
f 486 446 443 483 
f 368 487 488 372 
f 372 488 489 374 
f 374 489 490 370 
f 370 490 487 368 
f 487 491 492 488 
f 488 492 493 489 
f 489 493 494 490 
f 490 494 491 487 
f 491 495 496 492 
f 492 496 497 493 
f 493 497 498 494 
f 494 498 495 491 
f 495 499 500 496 
f 496 500 501 497 
f 497 501 502 498 
f 498 502 499 495 
f 499 503 504 500 
f 500 504 505 501 
f 501 505 506 502 
f 502 506 503 499 
f 503 507 508 504 
f 504 508 509 505 
f 505 509 510 506 
f 506 510 507 503 
f 507 511 512 508 
f 508 512 513 509 
f 509 513 514 510 
f 510 514 511 507 
f 511 515 516 512 
f 512 516 517 513 
f 513 517 518 514 
f 514 518 515 511 
f 569 572 571 570 
f 560 543 540 584 
f 522 538 537 521 
f 552 554 553 551 
f 580 555 556 582 
f 555 585 543 560 
f 534 532 531 533 
f 526 238 223 523 
f 522 528 527 519 
f 526 530 528 522 
f 523 529 530 526 
f 519 527 529 523 
f 526 564 563 525 
f 562 532 534 564 
f 561 531 532 562 
f 525 563 561 521 
f 538 522 519 535 
f 536 229 224 535 
f 537 234 229 536 
f 538 239 234 537 
f 535 544 545 536 
f 519 539 544 535 
f 579 546 585 555 
f 583 575 574 581 
f 524 542 541 523 
f 523 541 539 519 
f 545 521 537 536 
f 584 540 546 579 
f 528 548 547 527 
f 530 550 548 528 
f 529 549 550 530 
f 527 547 549 529 
f 548 552 551 547 
f 550 554 552 548 
f 549 553 554 550 
f 547 551 553 549 
f 545 576 573 520 
f 583 559 560 584 
f 539 574 575 544 
f 542 558 557 541 
f 520 558 542 
f 541 557 539 
f 579 555 580 
f 582 556 581 
f 564 534 533 563 
f 564 526 522 562 
f 562 522 521 561 
f 563 533 531 561 
f 555 565 566 556 
f 560 568 565 555 
f 559 567 568 560 
f 556 566 567 559 
f 565 569 570 566 
f 568 572 569 565 
f 567 571 572 568 
f 566 570 571 567 
f 578 557 558 577 
f 576 584 579 573 
f 576 545 544 575 
f 581 556 559 583 
f 577 558 520 573 
f 574 539 557 578 
f 582 578 577 580 
f 584 576 575 583 
f 580 577 573 579 
f 581 574 578 582 
f 590 591 593 592 
f 524 525 521 545 
f 524 542 545 
f 520 542 545 
f 594 586 588 596 
f 543 595 594 540 
f 585 597 595 543 
f 596 588 589 597 
f 586 590 592 588 
f 587 591 590 586 
f 589 593 591 587 
f 588 592 593 589 
f 596 546 540 594 
f 595 587 586 594 
f 601 599 598 600 
f 597 585 546 596 
f 597 601 600 595 
f 589 599 601 597 
f 587 598 599 589 
f 595 600 598 587 

